<svg data-v-fde0c5aa="" xmlns="http://www.w3.org/2000/svg" viewBox="0 0 300 300" class="iconAboveSlogan"><defs data-v-fde0c5aa=""></defs><rect data-v-fde0c5aa="" fill="#A3BC8B" x="0" y="0" width="300px" height="300px" class="logo-background-square"></rect><defs data-v-fde0c5aa=""></defs><g data-v-fde0c5aa="" id="2be6e89d-5948-4437-b09e-3ddb844600a4" fill="#1C484D" transform="matrix(3.0380929473835674,0,0,3.0380929473835674,19.574666985555428,150.33053727028062)"><path d="M4.72 3.64Q6.09 3.64 7.06 3.96Q8.02 4.28 8.97 5.11L8.97 5.11L7.55 7.14Q6.92 6.55 6.27 6.29Q5.61 6.03 4.82 6.03L4.82 6.03Q4.33 6.03 4.03 6.18Q3.74 6.33 3.74 6.57L3.74 6.57Q3.74 6.72 4.02 6.80Q4.30 6.89 5.00 7.01L5.00 7.01Q7.03 7.38 7.92 8.11Q8.81 8.85 8.81 10.18L8.81 10.18Q8.81 11.13 8.26 11.80Q7.71 12.47 6.78 12.82Q5.84 13.16 4.68 13.16L4.68 13.16Q3.04 13.16 2.06 12.85Q1.08 12.54 0.14 11.86L0.14 11.86L1.54 9.65Q2.13 10.22 2.83 10.49Q3.53 10.77 4.44 10.77L4.44 10.77Q5.46 10.77 5.46 10.35L5.46 10.35Q5.46 10.12 5.14 10.01Q4.82 9.90 4.09 9.77L4.09 9.77Q3.02 9.58 2.27 9.32Q1.53 9.07 0.96 8.47Q0.39 7.87 0.39 6.82L0.39 6.82Q0.39 5.87 0.90 5.15Q1.40 4.44 2.37 4.04Q3.35 3.64 4.72 3.64L4.72 3.64ZM14.99 5.88Q16.03 5.88 16.61 6.50Q17.19 7.11 17.19 8.23L17.19 8.23L17.19 13.02L13.97 13.02L13.97 9.07Q13.97 8.61 13.86 8.43Q13.75 8.25 13.48 8.25L13.48 8.25Q13.13 8.25 12.97 8.51Q12.81 8.78 12.81 9.35L12.81 9.35L12.81 13.02L9.59 13.02L9.59 3.22L12.81 3.22L12.81 7.45Q13.09 6.68 13.65 6.28Q14.21 5.88 14.99 5.88L14.99 5.88ZM25.73 11.30Q25.97 11.30 26.08 11.24L26.08 11.24L25.83 12.88Q25.35 13.16 24.79 13.16L24.79 13.16Q23.94 13.16 23.37 12.86Q22.79 12.56 22.60 11.98L22.60 11.98Q22.27 12.53 21.65 12.84Q21.03 13.16 20.10 13.16L20.10 13.16Q19.01 13.16 18.48 12.73Q17.95 12.31 17.95 11.49L17.95 11.49Q17.95 10.61 18.58 10.09Q19.21 9.56 20.68 9.24L20.68 9.24L22.06 8.93L22.06 8.65Q22.06 8.33 21.90 8.15Q21.74 7.97 21.43 7.97L21.43 7.97Q21.10 7.97 20.90 8.15Q20.71 8.34 20.69 8.82L20.69 8.82L18.03 8.41Q18.14 7.21 19.04 6.54Q19.94 5.88 21.62 5.88L21.62 5.88Q23.48 5.88 24.37 6.59Q25.26 7.31 25.26 8.76L25.26 8.76L25.26 10.72Q25.26 11.30 25.73 11.30L25.73 11.30ZM21.46 11.41Q21.73 11.41 21.90 11.23Q22.06 11.06 22.06 10.72L22.06 10.72L22.06 10.05L21.60 10.19Q21.31 10.28 21.14 10.46Q20.97 10.65 20.97 10.92L20.97 10.92Q20.97 11.16 21.11 11.28Q21.25 11.41 21.46 11.41L21.46 11.41ZM31.53 5.88Q32.02 5.88 32.26 6.05L32.26 6.05L31.99 8.68Q31.86 8.58 31.63 8.52Q31.39 8.46 31.11 8.46L31.11 8.46Q30.46 8.46 30.09 8.76Q29.72 9.07 29.72 9.66L29.72 9.66L29.72 13.02L26.50 13.02L26.50 6.02L29.40 6.02L29.47 7.77Q29.97 5.88 31.53 5.88L31.53 5.88ZM34.33 5.57Q33.38 5.57 32.98 5.26Q32.58 4.96 32.58 4.23L32.58 4.23Q32.58 3.50 32.98 3.19Q33.38 2.88 34.33 2.88L34.33 2.88Q35.28 2.88 35.68 3.19Q36.08 3.50 36.08 4.23L36.08 4.23Q36.08 4.96 35.68 5.26Q35.28 5.57 34.33 5.57L34.33 5.57ZM35.94 6.02L35.94 13.02L32.72 13.02L32.72 6.02L35.94 6.02ZM44.49 11.30Q44.73 11.30 44.84 11.24L44.84 11.24L44.59 12.88Q44.11 13.16 43.55 13.16L43.55 13.16Q42.70 13.16 42.13 12.86Q41.55 12.56 41.36 11.98L41.36 11.98Q41.03 12.53 40.41 12.84Q39.79 13.16 38.86 13.16L38.86 13.16Q37.77 13.16 37.24 12.73Q36.71 12.31 36.71 11.49L36.71 11.49Q36.71 10.61 37.34 10.09Q37.97 9.56 39.44 9.24L39.44 9.24L40.82 8.93L40.82 8.65Q40.82 8.33 40.66 8.15Q40.50 7.97 40.19 7.97L40.19 7.97Q39.86 7.97 39.66 8.15Q39.47 8.34 39.45 8.82L39.45 8.82L36.79 8.41Q36.90 7.21 37.80 6.54Q38.70 5.88 40.38 5.88L40.38 5.88Q42.24 5.88 43.13 6.59Q44.02 7.31 44.02 8.76L44.02 8.76L44.02 10.72Q44.02 11.30 44.49 11.30L44.49 11.30ZM40.22 11.41Q40.49 11.41 40.66 11.23Q40.82 11.06 40.82 10.72L40.82 10.72L40.82 10.05L40.36 10.19Q40.07 10.28 39.90 10.46Q39.73 10.65 39.73 10.92L39.73 10.92Q39.73 11.16 39.87 11.28Q40.01 11.41 40.22 11.41L40.22 11.41ZM50.67 5.88Q51.70 5.88 52.28 6.50Q52.86 7.11 52.86 8.23L52.86 8.23L52.86 13.02L49.64 13.02L49.64 9.07Q49.64 8.61 49.53 8.43Q49.42 8.25 49.15 8.25L49.15 8.25Q48.80 8.25 48.64 8.51Q48.48 8.78 48.48 9.35L48.48 9.35L48.48 13.02L45.26 13.02L45.26 3.22L48.48 3.22L48.48 7.45Q48.76 6.68 49.32 6.28Q49.88 5.88 50.67 5.88L50.67 5.88ZM57.36 10.63L61.94 10.63L61.94 13.02L54.10 13.02L54.10 3.78L61.77 3.78L61.77 6.17L57.36 6.17L57.36 7.32L60.91 7.32L60.91 9.53L57.36 9.53L57.36 10.63ZM70.17 11.30Q70.41 11.30 70.52 11.24L70.52 11.24L70.27 12.88Q69.79 13.16 69.23 13.16L69.23 13.16Q68.38 13.16 67.80 12.86Q67.23 12.56 67.03 11.98L67.03 11.98Q66.71 12.53 66.09 12.84Q65.46 13.16 64.54 13.16L64.54 13.16Q63.45 13.16 62.92 12.73Q62.38 12.31 62.38 11.49L62.38 11.49Q62.38 10.61 63.01 10.09Q63.64 9.56 65.11 9.24L65.11 9.24L66.50 8.93L66.50 8.65Q66.50 8.33 66.34 8.15Q66.18 7.97 65.87 7.97L65.87 7.97Q65.53 7.97 65.34 8.15Q65.14 8.34 65.13 8.82L65.13 8.82L62.47 8.41Q62.58 7.21 63.48 6.54Q64.37 5.88 66.05 5.88L66.05 5.88Q67.91 5.88 68.80 6.59Q69.69 7.31 69.69 8.76L69.69 8.76L69.69 10.72Q69.69 11.30 70.17 11.30L70.17 11.30ZM65.90 11.41Q66.16 11.41 66.33 11.23Q66.50 11.06 66.50 10.72L66.50 10.72L66.50 10.05L66.04 10.19Q65.74 10.28 65.58 10.46Q65.41 10.65 65.41 10.92L65.41 10.92Q65.41 11.16 65.55 11.28Q65.69 11.41 65.90 11.41L65.90 11.41ZM74.19 13.16Q72.88 13.16 71.99 12.91Q71.09 12.67 70.48 12.12L70.48 12.12L71.89 10.42Q72.30 10.78 72.83 11.00Q73.36 11.23 73.95 11.23L73.95 11.23Q74.21 11.23 74.39 11.18Q74.56 11.13 74.56 11.02L74.56 11.02Q74.56 10.89 74.33 10.79Q74.09 10.68 73.51 10.57L73.51 10.57Q72.00 10.28 71.31 9.72Q70.62 9.17 70.62 8.32L70.62 8.32Q70.62 7.70 71.03 7.15Q71.44 6.59 72.30 6.24Q73.15 5.88 74.41 5.88L74.41 5.88Q75.64 5.88 76.47 6.17Q77.31 6.47 77.78 6.90L77.78 6.90L76.47 8.46Q75.82 7.81 74.56 7.81L74.56 7.81Q74.19 7.81 74.02 7.88Q73.85 7.95 73.85 8.06L73.85 8.06Q73.85 8.23 74.70 8.34L74.70 8.34Q76.31 8.57 77.06 9.12Q77.80 9.67 77.80 10.64L77.80 10.64Q77.80 11.73 76.90 12.45Q76.01 13.16 74.19 13.16L74.19 13.16ZM85.72 9.30Q85.72 9.83 85.65 10.14L85.65 10.14L81.20 10.14Q81.27 10.65 81.49 10.84Q81.72 11.02 82.17 11.02L82.17 11.02Q82.85 11.02 83.01 10.42L83.01 10.42L85.60 11.12Q85.36 12.12 84.43 12.64Q83.50 13.16 82.17 13.16L82.17 13.16Q80.18 13.16 79.15 12.22Q78.12 11.28 78.12 9.52L78.12 9.52Q78.12 7.78 79.14 6.83Q80.15 5.88 82.00 5.88L82.00 5.88Q83.80 5.88 84.76 6.80Q85.72 7.73 85.72 9.30L85.72 9.30ZM82.01 8.01Q81.65 8.01 81.45 8.22Q81.26 8.43 81.20 8.95L81.20 8.95L82.71 8.95Q82.67 8.47 82.51 8.24Q82.35 8.01 82.01 8.01L82.01 8.01Z"></path></g><defs data-v-fde0c5aa=""></defs><g data-v-fde0c5aa="" id="4773aae2-b006-4cd5-9709-cb92b5a10355" stroke="none" fill="#1C484D" transform="matrix(0.0690613857451932,0,0,0.0690613857451932,108.56322229633307,88.13861274644914)"><path d="M661.268 610.321c-133.62-1.021-209.02-112.673-240.969-170.606-31.945-58.001-59.178-51.952-53.384-74.014 9.4-35.841 87.396 30.086 123.026 71.736 35.61 41.621 86.846 69.318 155.625 71.954-28.34-45.566-118.867-72.613-90.982-87.304 25.768-13.578 107.869 2.781 222.48 52.346 39.315 17.005 67.402 48.279 87.34 82.035C1160.486 221.024 836.382-47.426 600 151.327c-115.284-96.93-251.432-82.73-326.329-3.835 42.345 13.739 95.487 23.758 153.071 24.184 133.611 1.022 209.02 112.672 240.959 170.61 31.938 58.003 59.18 51.95 53.385 74.013-9.4 35.84-87.389-30.088-123.025-71.736-35.611-41.621-86.849-69.317-155.626-71.954 28.339 45.566 118.876 72.611 90.981 87.305-25.755 13.583-107.856-2.774-222.48-52.346-37.547-16.24-64.854-45.497-84.601-77.499C187.21 362.632 266.538 567.035 600 766.588c77.269-46.24 140.882-92.741 192.549-138.548-38.195-10.317-83.193-17.362-131.281-17.719"></path></g><defs data-v-fde0c5aa=""></defs><g data-v-fde0c5aa="" id="aa2dcb80-8ef9-41e9-83cb-38ad13324094" fill="#1C484D" transform="matrix(0.4956283011131812,0,0,0.4956283011131812,51.9944591423179,197.49667132902954)"><path d="M1.02 15.68L1.02 5.88L2.20 5.88L2.20 10.22L6.37 10.22L6.37 5.88L7.55 5.88L7.55 15.68L6.37 15.68L6.37 11.31L2.20 11.31L2.20 15.68L1.02 15.68ZM22.67 15.68L21.95 13.24L17.75 13.24L17.04 15.68L15.78 15.68L18.75 5.88L20.96 5.88L23.93 15.68L22.67 15.68ZM19.94 6.38L19.77 6.38L18.07 12.15L21.63 12.15L19.94 6.38ZM32.35 15.68L32.35 5.88L33.53 5.88L33.53 14.59L38.65 14.59L38.65 15.68L32.35 15.68ZM53.80 15.68L53.09 13.24L48.89 13.24L48.17 15.68L46.91 15.68L49.88 5.88L52.09 5.88L55.06 15.68L53.80 15.68ZM51.07 6.38L50.90 6.38L49.21 12.15L52.77 12.15L51.07 6.38ZM63.49 15.68L63.49 5.88L64.67 5.88L64.67 14.59L69.79 14.59L69.79 15.68L63.49 15.68ZM101.82 5.88L100.83 15.68L98.69 15.68L97.78 6.38L97.61 6.38L96.70 15.68L94.56 15.68L93.56 5.88L94.63 5.88L95.56 15.18L95.73 15.18L96.61 5.88L98.77 5.88L99.65 15.18L99.82 15.18L100.76 5.88L101.82 5.88ZM110.29 15.68L110.29 5.88L116.23 5.88L116.23 6.97L111.47 6.97L111.47 10.22L116.14 10.22L116.14 11.31L111.47 11.31L111.47 14.59L116.31 14.59L116.31 15.68L110.29 15.68ZM131.64 15.68L130.93 13.24L126.73 13.24L126.01 15.68L124.75 15.68L127.72 5.88L129.93 5.88L132.90 15.68L131.64 15.68ZM128.91 6.38L128.74 6.38L127.05 12.15L130.61 12.15L128.91 6.38ZM141.33 15.68L141.33 5.88L142.51 5.88L142.51 14.59L147.63 14.59L147.63 15.68L141.33 15.68ZM156.52 6.97L156.52 5.88L163.41 5.88L163.41 6.97L160.55 6.97L160.55 15.68L159.38 15.68L159.38 6.97L156.52 6.97ZM172.27 15.68L172.27 5.88L173.45 5.88L173.45 10.22L177.62 10.22L177.62 5.88L178.79 5.88L178.79 15.68L177.62 15.68L177.62 11.31L173.45 11.31L173.45 15.68L172.27 15.68ZM190.12 14.90L190.12 14.90Q190.12 14.49 190.41 14.20Q190.69 13.92 191.10 13.92L191.10 13.92Q191.51 13.92 191.79 14.20Q192.08 14.49 192.08 14.90L192.08 14.90L192.08 16.27Q192.08 16.74 191.78 17.05Q191.48 17.36 191.00 17.36L191.00 17.36L190.29 17.36L190.29 16.60L190.95 16.60Q191.32 16.60 191.32 16.18L191.32 16.18L191.32 15.83Q191.21 15.88 191.09 15.88L191.09 15.88Q190.69 15.88 190.41 15.59Q190.12 15.30 190.12 14.90ZM224.55 9.21L224.55 8.71Q224.55 8.23 224.36 7.87Q224.17 7.50 223.85 7.27Q223.52 7.03 223.10 6.90Q222.68 6.78 222.22 6.78L222.22 6.78Q221.82 6.78 221.45 6.88Q221.09 6.99 220.80 7.18Q220.51 7.38 220.35 7.66Q220.18 7.95 220.18 8.33L220.18 8.33L220.18 8.41Q220.18 8.82 220.35 9.11Q220.51 9.39 220.84 9.60Q221.17 9.80 221.66 9.93Q222.15 10.07 222.81 10.16L222.81 10.16Q224.35 10.40 225.08 11.07Q225.81 11.73 225.81 12.85L225.81 12.85L225.81 13.02Q225.81 13.65 225.59 14.17Q225.37 14.70 224.95 15.08Q224.52 15.46 223.89 15.67Q223.26 15.88 222.43 15.88L222.43 15.88Q221.49 15.88 220.77 15.60Q220.05 15.33 219.57 14.85Q219.09 14.36 218.83 13.71Q218.58 13.06 218.58 12.29L218.58 12.29L218.58 11.87L219.76 11.87L219.76 12.21Q219.76 13.50 220.47 14.14Q221.17 14.78 222.43 14.78L222.43 14.78Q223.52 14.78 224.08 14.30Q224.63 13.82 224.63 13.02L224.63 13.02L224.63 12.94Q224.63 12.17 224.06 11.76Q223.50 11.35 222.22 11.17L222.22 11.17Q221.48 11.07 220.89 10.87Q220.29 10.67 219.87 10.34Q219.45 10.01 219.23 9.55Q219.00 9.09 219.00 8.46L219.00 8.46L219.00 8.29Q219.00 7.71 219.24 7.24Q219.48 6.76 219.91 6.41Q220.33 6.06 220.93 5.87Q221.52 5.68 222.24 5.68L222.24 5.68Q223.06 5.68 223.71 5.92Q224.36 6.16 224.81 6.56Q225.26 6.96 225.49 7.50Q225.72 8.04 225.72 8.62L225.72 8.62L225.72 9.21L224.55 9.21ZM234.70 6.97L234.70 5.88L240.91 5.88L240.91 6.97L238.39 6.97L238.39 14.59L240.91 14.59L240.91 15.68L234.70 15.68L234.70 14.59L237.22 14.59L237.22 6.97L234.70 6.97ZM249.73 15.68L249.73 5.88L251.97 5.88L253.29 15.18L253.46 15.18L254.77 5.88L257.01 5.88L257.01 15.68L255.92 15.68L255.92 6.38L255.75 6.38L254.44 15.68L252.31 15.68L250.99 6.38L250.82 6.38L250.82 15.68L249.73 15.68ZM269.35 11.65L267.02 11.65L267.02 15.68L265.85 15.68L265.85 5.88L269.35 5.88Q270.10 5.88 270.66 6.10Q271.22 6.31 271.59 6.68Q271.96 7.04 272.15 7.53Q272.34 8.01 272.34 8.54L272.34 8.54L272.34 8.96Q272.34 9.49 272.15 9.98Q271.96 10.47 271.59 10.84Q271.21 11.21 270.65 11.43Q270.09 11.65 269.35 11.65L269.35 11.65ZM267.02 6.97L267.02 10.56L269.21 10.56Q271.17 10.56 271.17 8.88L271.17 8.88L271.17 8.62Q271.17 7.88 270.68 7.43Q270.20 6.97 269.21 6.97L269.21 6.97L267.02 6.97ZM281.44 15.68L281.44 5.88L282.62 5.88L282.62 14.59L287.74 14.59L287.74 15.68L281.44 15.68ZM296.97 6.97L296.97 5.88L303.18 5.88L303.18 6.97L300.66 6.97L300.66 14.59L303.18 14.59L303.18 15.68L296.97 15.68L296.97 14.59L299.49 14.59L299.49 6.97L296.97 6.97ZM312.69 15.68L312.69 5.88L318.71 5.88L318.71 6.97L313.87 6.97L313.87 10.22L318.63 10.22L318.63 11.31L313.87 11.31L313.87 15.68L312.69 15.68ZM328.10 6.97L328.10 5.88L334.32 5.88L334.32 6.97L331.80 6.97L331.80 14.59L334.32 14.59L334.32 15.68L328.10 15.68L328.10 14.59L330.62 14.59L330.62 6.97L328.10 6.97ZM343.81 15.68L343.81 5.88L349.75 5.88L349.75 6.97L344.99 6.97L344.99 10.22L349.66 10.22L349.66 11.31L344.99 11.31L344.99 14.59L349.83 14.59L349.83 15.68L343.81 15.68ZM359.09 6.97L359.09 5.88L362.31 5.88Q364.13 5.88 364.97 6.75Q365.81 7.62 365.81 9.52L365.81 9.52L365.81 12.04Q365.81 13.94 364.97 14.81Q364.13 15.68 362.31 15.68L362.31 15.68L359.09 15.68L359.09 14.57L359.93 14.57L359.93 6.97L359.09 6.97ZM361.10 14.59L362.14 14.59Q362.78 14.59 363.25 14.46Q363.72 14.34 364.03 14.04Q364.34 13.73 364.48 13.23Q364.63 12.73 364.63 11.96L364.63 11.96L364.63 9.60Q364.63 8.83 364.48 8.33Q364.34 7.83 364.03 7.53Q363.72 7.22 363.25 7.10Q362.78 6.97 362.14 6.97L362.14 6.97L361.10 6.97L361.10 14.59ZM392.50 14.90L392.50 14.90Q392.50 14.49 392.79 14.20Q393.08 13.92 393.48 13.92L393.48 13.92Q393.89 13.92 394.18 14.20Q394.46 14.49 394.46 14.90L394.46 14.90Q394.46 15.30 394.18 15.59Q393.89 15.88 393.48 15.88L393.48 15.88Q393.08 15.88 392.79 15.59Q392.50 15.30 392.50 14.90ZM392.92 5.88L394.04 5.88L394.04 13.08L392.92 13.08L392.92 5.88Z"></path></g></svg>